<?xml version="1.0" standalone="no"?>
<!DOCTYPE svg PUBLIC "-//W3C//DTD SVG 20010904//EN"
 "http://www.w3.org/TR/2001/REC-SVG-20010904/DTD/svg10.dtd">
<svg version="1.0" xmlns="http://www.w3.org/2000/svg"
 width="200.000000pt" height="200.000000pt" viewBox="0 0 200.000000 200.000000"
 preserveAspectRatio="xMidYMid meet">

<g transform="translate(0.000000,200.000000) scale(0.100000,-0.100000)"
fill="#000000" stroke="none">
<path d="M0 1000 l0 -1000 1000 0 1000 0 0 1000 0 1000 -1000 0 -1000 0 0
-1000z m333 109 c16 -9 22 -9 25 0 2 6 25 11 53 11 l49 0 0 -97 c0 -54 -4
-103 -8 -110 -14 -22 -62 -33 -142 -33 -100 0 -149 18 -150 54 0 4 44 7 97 5
85 -4 98 -2 101 13 3 14 -5 16 -57 11 -102 -10 -141 11 -141 76 0 37 17 62 50
74 27 10 101 7 123 -4z m263 -30 l17 -40 18 40 c17 39 20 41 64 41 44 0 46 -1
61 -41 l17 -40 18 41 18 41 108 -3 108 -3 20 -37 c11 -21 23 -38 26 -38 3 0
14 18 24 40 18 39 19 40 72 40 29 0 53 -4 53 -10 0 -5 -27 -53 -60 -108 -66
-110 -83 -122 -165 -122 l-55 0 0 35 c0 32 2 35 30 35 17 0 30 4 30 9 0 6 -19
42 -42 80 l-43 71 -43 -85 -42 -85 -49 0 c-48 0 -48 0 -65 45 -10 25 -21 43
-25 41 -4 -3 -13 -23 -21 -45 -13 -41 -13 -41 -64 -41 l-52 0 -42 85 c-23 47
-42 87 -42 90 0 3 25 5 55 5 55 0 55 0 71 -41z m740 31 c8 -8 19 -8 38 0 51
19 117 8 138 -24 4 -6 8 -41 8 -78 l0 -68 -49 0 -50 0 -3 46 c-6 88 -70 88
-76 0 l-3 -46 -55 0 -54 0 0 83 c0 46 3 87 7 90 10 11 88 8 99 -3z m377 -1
c16 -9 22 -9 25 0 2 6 25 11 53 11 l49 0 0 -97 c0 -54 -4 -103 -8 -110 -14
-22 -62 -33 -142 -33 -100 0 -149 18 -150 54 0 4 44 7 97 5 85 -4 98 -2 101
13 3 14 -5 16 -57 11 -102 -10 -141 11 -141 76 0 37 17 62 50 74 27 10 101 7
123 -4z"/>
<path d="M265 1050 c-11 -17 15 -40 44 -40 35 0 55 15 48 34 -7 18 -82 23 -92
6z"/>
<path d="M1645 1050 c-11 -17 15 -40 44 -40 35 0 55 15 48 34 -7 18 -82 23
-92 6z"/>
</g>
</svg>
